<mxfile host="app.diagrams.net" agent="Mozilla/5.0 (Windows NT 10.0; Win64; x64) AppleWebKit/537.36 (KHTML, like Gecko) Chrome/132.0.0.0 Safari/537.36" version="26.0.14">
  <diagram name="Página-1" id="s2mggWeEPvUGIn6GnnP1">
    <mxGraphModel dx="1114" dy="558" grid="1" gridSize="10" guides="1" tooltips="1" connect="1" arrows="1" fold="1" page="1" pageScale="1" pageWidth="850" pageHeight="1100" math="0" shadow="0">
      <root>
        <mxCell id="0" />
        <mxCell id="1" parent="0" />
        <mxCell id="8pHyi_RGZZMidOwSBXOs-3" value="" style="edgeStyle=orthogonalEdgeStyle;rounded=0;orthogonalLoop=1;jettySize=auto;html=1;" edge="1" parent="1" source="8pHyi_RGZZMidOwSBXOs-1" target="8pHyi_RGZZMidOwSBXOs-2">
          <mxGeometry relative="1" as="geometry" />
        </mxCell>
        <mxCell id="8pHyi_RGZZMidOwSBXOs-1" value="Inicio" style="ellipse;whiteSpace=wrap;html=1;" vertex="1" parent="1">
          <mxGeometry x="365" y="10" width="120" height="80" as="geometry" />
        </mxCell>
        <mxCell id="8pHyi_RGZZMidOwSBXOs-5" value="" style="edgeStyle=orthogonalEdgeStyle;rounded=0;orthogonalLoop=1;jettySize=auto;html=1;" edge="1" parent="1" source="8pHyi_RGZZMidOwSBXOs-2" target="8pHyi_RGZZMidOwSBXOs-4">
          <mxGeometry relative="1" as="geometry" />
        </mxCell>
        <mxCell id="8pHyi_RGZZMidOwSBXOs-2" value="Ingresar primer numero" style="whiteSpace=wrap;html=1;" vertex="1" parent="1">
          <mxGeometry x="365" y="120" width="120" height="60" as="geometry" />
        </mxCell>
        <mxCell id="8pHyi_RGZZMidOwSBXOs-7" value="" style="edgeStyle=orthogonalEdgeStyle;rounded=0;orthogonalLoop=1;jettySize=auto;html=1;" edge="1" parent="1" source="8pHyi_RGZZMidOwSBXOs-4" target="8pHyi_RGZZMidOwSBXOs-6">
          <mxGeometry relative="1" as="geometry" />
        </mxCell>
        <mxCell id="8pHyi_RGZZMidOwSBXOs-4" value="Ingresar segundo numero" style="whiteSpace=wrap;html=1;" vertex="1" parent="1">
          <mxGeometry x="365" y="210" width="120" height="60" as="geometry" />
        </mxCell>
        <mxCell id="8pHyi_RGZZMidOwSBXOs-9" value="" style="edgeStyle=orthogonalEdgeStyle;rounded=0;orthogonalLoop=1;jettySize=auto;html=1;" edge="1" parent="1" source="8pHyi_RGZZMidOwSBXOs-6" target="8pHyi_RGZZMidOwSBXOs-8">
          <mxGeometry relative="1" as="geometry" />
        </mxCell>
        <mxCell id="8pHyi_RGZZMidOwSBXOs-11" value="" style="edgeStyle=orthogonalEdgeStyle;rounded=0;orthogonalLoop=1;jettySize=auto;html=1;" edge="1" parent="1" source="8pHyi_RGZZMidOwSBXOs-6" target="8pHyi_RGZZMidOwSBXOs-10">
          <mxGeometry relative="1" as="geometry" />
        </mxCell>
        <mxCell id="8pHyi_RGZZMidOwSBXOs-6" value="número % divisor == 0?" style="rhombus;whiteSpace=wrap;html=1;" vertex="1" parent="1">
          <mxGeometry x="343" y="310" width="165" height="160" as="geometry" />
        </mxCell>
        <mxCell id="8pHyi_RGZZMidOwSBXOs-8" value="Mostrar &quot;numero múltiplo de divisor&quot;" style="whiteSpace=wrap;html=1;" vertex="1" parent="1">
          <mxGeometry x="100" y="500" width="120" height="60" as="geometry" />
        </mxCell>
        <mxCell id="8pHyi_RGZZMidOwSBXOs-10" value="Mostrar &quot;numero es múltiplo de divisor&quot;" style="whiteSpace=wrap;html=1;" vertex="1" parent="1">
          <mxGeometry x="640" y="490" width="120" height="60" as="geometry" />
        </mxCell>
        <mxCell id="8pHyi_RGZZMidOwSBXOs-12" value="Si" style="text;html=1;align=center;verticalAlign=middle;whiteSpace=wrap;rounded=0;" vertex="1" parent="1">
          <mxGeometry x="250" y="360" width="60" height="30" as="geometry" />
        </mxCell>
        <mxCell id="8pHyi_RGZZMidOwSBXOs-13" value="No" style="text;html=1;align=center;verticalAlign=middle;whiteSpace=wrap;rounded=0;" vertex="1" parent="1">
          <mxGeometry x="560" y="360" width="60" height="30" as="geometry" />
        </mxCell>
        <mxCell id="8pHyi_RGZZMidOwSBXOs-14" value="Fin" style="ellipse;whiteSpace=wrap;html=1;" vertex="1" parent="1">
          <mxGeometry x="365" y="610" width="120" height="80" as="geometry" />
        </mxCell>
        <mxCell id="8pHyi_RGZZMidOwSBXOs-15" value="" style="endArrow=classic;html=1;rounded=0;entryX=0;entryY=0.5;entryDx=0;entryDy=0;" edge="1" parent="1" target="8pHyi_RGZZMidOwSBXOs-14">
          <mxGeometry width="50" height="50" relative="1" as="geometry">
            <mxPoint x="160" y="560" as="sourcePoint" />
            <mxPoint x="250" y="590" as="targetPoint" />
            <Array as="points">
              <mxPoint x="160" y="650" />
            </Array>
          </mxGeometry>
        </mxCell>
        <mxCell id="8pHyi_RGZZMidOwSBXOs-17" value="" style="endArrow=classic;html=1;rounded=0;entryX=1;entryY=0.5;entryDx=0;entryDy=0;exitX=0.5;exitY=1;exitDx=0;exitDy=0;" edge="1" parent="1" source="8pHyi_RGZZMidOwSBXOs-10" target="8pHyi_RGZZMidOwSBXOs-14">
          <mxGeometry width="50" height="50" relative="1" as="geometry">
            <mxPoint x="610" y="640" as="sourcePoint" />
            <mxPoint x="660" y="590" as="targetPoint" />
            <Array as="points">
              <mxPoint x="700" y="650" />
            </Array>
          </mxGeometry>
        </mxCell>
      </root>
    </mxGraphModel>
  </diagram>
</mxfile>
